<svg width="575" height="103" viewBox="0 0 575 103" fill="none" xmlns="http://www.w3.org/2000/svg">
<path d="M175.695 1.92794H261.375V25.6879H207.519V39.3679H253.599V62.1199H207.519V77.2399H262.383V101H175.695V1.92794Z" fill="white"/>
<path d="M46.4342 0.199934C59.1062 0.199934 69.5222 2.79193 77.6822 7.97593C85.8422 13.0639 90.0182 20.6479 90.2102 30.7279V32.4559H60.4022V31.8799C60.4022 28.9999 59.3462 26.5999 57.2342 24.6799C55.1222 22.7599 51.9062 21.7999 47.5862 21.7999C43.3622 21.7999 40.0982 22.4239 37.7942 23.6719C35.5862 24.9199 34.4822 26.4559 34.4822 28.2799C34.4822 30.8719 36.0182 32.7919 39.0902 34.0399C42.1622 35.2879 47.1062 36.5839 53.9222 37.9279C61.8902 39.5599 68.4182 41.2879 73.5062 43.1119C78.6902 44.8399 83.2022 47.7199 87.0422 51.7519C90.8822 55.7839 92.8502 61.2559 92.9462 68.1679C92.9462 79.8799 88.9622 88.5679 80.9942 94.2319C73.1222 99.8959 62.5622 102.728 49.3142 102.728C33.8582 102.728 21.8102 100.136 13.1702 94.9519C4.62617 89.7679 0.354174 80.5999 0.354174 67.4479H30.4502C30.4502 72.4399 31.7462 75.7999 34.3382 77.5279C36.9302 79.1599 40.9622 79.9759 46.4342 79.9759C50.4662 79.9759 53.7782 79.5439 56.3702 78.6799C59.0582 77.8159 60.4022 76.0399 60.4022 73.3519C60.4022 70.9519 58.9142 69.1759 55.9382 68.0239C53.0582 66.7759 48.3062 65.4799 41.6822 64.1359C33.6182 62.4079 26.9462 60.6319 21.6662 58.8079C16.3862 56.8879 11.7782 53.7679 7.84217 49.4479C3.90617 45.1279 1.93817 39.2719 1.93817 31.8799C1.93817 21.0319 6.11417 13.0639 14.4662 7.97593C22.9142 2.79193 33.5702 0.199934 46.4342 0.199934ZM175.556 101V63.4159H140.564V101H108.74V1.92794H140.564V38.0719H175.556V1.92794H207.38V101H175.556ZM278.806 1.92794H364.486V25.6879H310.63V39.3679H356.71V62.1199H310.63V77.2399H365.494V101H278.806V1.92794ZM438.312 1.92794C444.456 1.92794 449.928 3.36794 454.728 6.24793C459.528 9.03194 463.272 12.9199 465.96 17.9119C468.648 22.8079 469.992 28.3279 469.992 34.4719V36.3439C469.992 42.4879 468.648 48.0559 465.96 53.0479C463.272 58.0399 459.528 61.9759 454.728 64.8559C449.928 67.6399 444.456 69.0319 438.312 69.0319H414.552V101H382.728V1.92794H438.312ZM414.552 45.8479H427.656C431.016 45.8479 433.512 44.9839 435.144 43.2559C436.872 41.5279 437.736 39.1759 437.736 36.1999V35.0479C437.736 31.9759 436.872 29.6239 435.144 27.9919C433.512 26.2639 431.016 25.3999 427.656 25.3999H414.552V45.8479ZM540.8 101L536.624 87.0319H501.92L497.744 101H465.2L501.344 1.92794H538.352L574.496 101H540.8ZM508.544 64.8559H530L519.632 29.5759H519.056L508.544 64.8559Z" fill="white"/>
</svg>
